<?xml version="1.0" encoding="iso-8859-1"?>
<!-- Generator: Adobe Illustrator 19.1.0, SVG Export Plug-In . SVG Version: 6.00 Build 0)  -->
<svg version="1.1" id="Laag_1" xmlns="http://www.w3.org/2000/svg" xmlns:xlink="http://www.w3.org/1999/xlink" x="0px" y="0px"
	 viewBox="0 0 168.914 25.814" style="enable-background:new 0 0 168.914 25.814;" xml:space="preserve">
<g>
	<path d="M9.551,10.725C9.418,9.908,9.231,9.306,8.988,8.918c-0.247-0.396-0.591-0.705-1.04-0.94
		c-0.453-0.23-0.956-0.343-1.512-0.343c-0.558,0-1.084,0.113-1.573,0.343C4.375,8.213,3.969,8.53,3.641,8.936
		C3.32,9.352,3.035,9.947,2.797,10.725H9.551z M11.255,16.085l0.852,0.713c-0.647,0.766-1.274,1.38-1.886,1.833
		c-0.606,0.447-1.181,0.768-1.725,0.951c-0.537,0.171-1.172,0.267-1.905,0.267c-1.306,0-2.415-0.264-3.342-0.8
		c-1.042-0.611-1.847-1.412-2.405-2.398C0.278,15.673,0,14.505,0,13.16c0-1.398,0.274-2.597,0.814-3.595
		c0.541-0.992,1.298-1.78,2.272-2.351c0.971-0.569,2.1-0.855,3.377-0.855c0.949,0,1.77,0.143,2.473,0.44
		c0.704,0.298,1.303,0.748,1.785,1.351c0.488,0.594,0.843,1.288,1.064,2.053c0.13,0.46,0.201,1.045,0.217,1.761H2.6
		c-0.025,0.433-0.043,0.762-0.043,0.971c0,1.118,0.194,2.114,0.585,2.986c0.392,0.873,0.908,1.516,1.552,1.928
		c0.643,0.406,1.377,0.614,2.196,0.614c0.689,0,1.364-0.16,2.008-0.484C9.544,17.665,10.334,17.024,11.255,16.085"/>
	<path d="M14.677,2.24V1.138C15.891,1.05,17.079,0.672,18.229,0h0.997v16.37c0,0.696,0.047,1.129,0.135,1.306
		c0.116,0.246,0.279,0.427,0.504,0.543c0.22,0.118,0.649,0.176,1.274,0.176h0.433v1.134h-6.854v-1.134h0.689
		c0.433,0,0.756-0.067,0.977-0.195c0.219-0.131,0.375-0.31,0.465-0.536c0.093-0.227,0.142-0.687,0.142-1.367V2.24H14.677z"/>
	<path d="M23.675,2.24V1.138C24.887,1.05,26.071,0.672,27.225,0h0.993v16.37c0,0.696,0.046,1.129,0.13,1.306
		c0.114,0.246,0.287,0.427,0.508,0.543c0.221,0.118,0.648,0.176,1.28,0.176h0.426v1.134h-6.852v-1.134H24.4
		c0.43,0,0.765-0.067,0.979-0.195c0.214-0.131,0.367-0.31,0.462-0.536c0.092-0.227,0.137-0.687,0.137-1.367V2.24H23.675z"/>
	<path d="M42.537,10.725c-0.135-0.817-0.319-1.419-0.566-1.807c-0.244-0.396-0.59-0.705-1.042-0.94
		c-0.449-0.23-0.95-0.343-1.509-0.343c-0.559,0-1.082,0.113-1.568,0.343c-0.49,0.235-0.902,0.552-1.222,0.958
		c-0.325,0.415-0.604,1.011-0.848,1.789H42.537z M44.241,16.085l0.851,0.713c-0.649,0.766-1.28,1.38-1.889,1.833
		c-0.605,0.447-1.183,0.768-1.721,0.951c-0.544,0.171-1.183,0.267-1.908,0.267c-1.309,0-2.418-0.264-3.332-0.8
		c-1.052-0.611-1.853-1.412-2.414-2.398c-0.561-0.978-0.842-2.146-0.842-3.491c0-1.398,0.272-2.597,0.815-3.595
		c0.536-0.992,1.293-1.78,2.269-2.351c0.968-0.569,2.099-0.855,3.378-0.855c0.95,0,1.772,0.143,2.473,0.44
		c0.698,0.298,1.296,0.748,1.783,1.351c0.492,0.594,0.849,1.288,1.069,2.053c0.121,0.46,0.195,1.045,0.212,1.761h-9.402
		c-0.026,0.433-0.043,0.762-0.043,0.971c0,1.118,0.2,2.114,0.59,2.986c0.388,0.873,0.908,1.516,1.554,1.928
		c0.636,0.406,1.37,0.614,2.191,0.614c0.692,0,1.357-0.16,2.009-0.484C42.528,17.665,43.315,17.024,44.241,16.085"/>
	<path d="M47.843,8.596V7.492c0.791-0.088,1.386-0.195,1.774-0.32c0.394-0.129,0.96-0.401,1.701-0.813h0.962v2.572
		c1.175-1.002,2.176-1.68,3.01-2.036c0.836-0.362,1.681-0.536,2.534-0.536c0.732,0,1.371,0.118,1.938,0.366
		c0.56,0.239,1.017,0.572,1.367,0.99c0.352,0.414,0.583,0.887,0.703,1.423c0.069,0.324,0.106,0.822,0.106,1.483v5.851
		c0,0.705,0.05,1.151,0.156,1.352c0.099,0.203,0.26,0.348,0.48,0.436c0.224,0.092,0.764,0.136,1.636,0.136v1.132h-6.852v-1.132
		h0.373c0.643,0,1.081-0.06,1.314-0.177c0.231-0.116,0.398-0.282,0.507-0.505c0.101-0.215,0.147-0.662,0.147-1.345v-4.875
		c0-1.004-0.082-1.705-0.248-2.095c-0.168-0.384-0.446-0.695-0.846-0.935c-0.396-0.249-0.898-0.369-1.504-0.369
		c-0.726,0-1.506,0.185-2.324,0.552c-0.827,0.368-1.62,0.907-2.391,1.619v6.102c0,0.691,0.054,1.145,0.149,1.377
		c0.102,0.232,0.269,0.397,0.49,0.514c0.156,0.092,0.575,0.136,1.254,0.136h0.38v1.132H47.88v-1.132h0.33
		c0.659,0,1.11-0.06,1.354-0.168c0.237-0.111,0.406-0.31,0.509-0.589c0.051-0.134,0.077-0.623,0.077-1.447V8.596H47.843z"/>
	<path d="M79.711,2.13h0.968v4.548h3.941v1.348h-3.941v8.015c0,0.687,0.056,1.167,0.178,1.465c0.114,0.293,0.319,0.53,0.611,0.713
		c0.285,0.189,0.61,0.285,0.96,0.285c0.84,0,1.776-0.38,2.794-1.14v1.3c-1.163,0.791-2.343,1.187-3.532,1.187
		c-0.672,0-1.288-0.154-1.832-0.453c-0.549-0.302-0.917-0.659-1.118-1.064c-0.203-0.415-0.303-1.117-0.303-2.134V8.026h-2.312V6.895
		c0.748-0.17,1.346-0.438,1.797-0.793c0.459-0.359,0.824-0.816,1.103-1.389C79.308,4.146,79.542,3.277,79.711,2.13"/>
	<path d="M87.377,8.596V7.492c0.649-0.054,1.222-0.157,1.72-0.328c0.511-0.165,1.079-0.434,1.725-0.804h0.99v2.53
		c0.643-0.776,1.378-1.393,2.211-1.847c0.839-0.46,1.59-0.684,2.259-0.684c0.662,0,1.18,0.151,1.564,0.464
		c0.38,0.312,0.575,0.688,0.575,1.124c0,0.323-0.124,0.609-0.377,0.846c-0.258,0.242-0.562,0.364-0.914,0.364
		c-0.165,0-0.304-0.02-0.42-0.06c-0.111-0.045-0.285-0.143-0.507-0.284c-0.485-0.312-0.894-0.47-1.221-0.47
		c-0.449,0-0.937,0.185-1.467,0.555c-0.678,0.482-1.209,0.952-1.592,1.414v6.128c0,0.523,0.032,0.887,0.087,1.073
		c0.06,0.189,0.156,0.354,0.288,0.487c0.133,0.139,0.301,0.238,0.494,0.301c0.2,0.061,0.542,0.095,1.033,0.095h0.441v1.132h-6.856
		v-1.132h0.566c0.527,0,0.876-0.049,1.038-0.147c0.226-0.133,0.395-0.317,0.502-0.551c0.111-0.233,0.163-0.647,0.163-1.258V8.596
		H87.377z"/>
	<path d="M99.554,6.678l5.013-0.218v8.591c0,0.755,0.101,1.36,0.313,1.798c0.209,0.447,0.528,0.787,0.963,1.036
		c0.433,0.247,0.94,0.366,1.525,0.366c0.711,0,1.523-0.191,2.436-0.569c0.907-0.386,1.805-0.952,2.715-1.712V9.766
		c0-0.648-0.044-1.082-0.145-1.282c-0.101-0.202-0.269-0.362-0.513-0.491c-0.243-0.121-0.63-0.182-1.151-0.182h-0.958V6.678
		l5.004-0.218v9.951c0,0.635,0.055,1.07,0.156,1.314c0.113,0.243,0.263,0.417,0.478,0.516c0.206,0.098,0.627,0.156,1.261,0.156
		h0.414l-0.034,1.134l-4.406,0.212v-2.45c-1.219,0.969-2.28,1.635-3.191,2.001c-0.905,0.369-1.822,0.559-2.758,0.559
		c-0.693,0-1.299-0.098-1.805-0.282c-0.511-0.188-0.957-0.465-1.345-0.836c-0.394-0.375-0.687-0.821-0.891-1.351
		c-0.204-0.522-0.307-1.074-0.307-1.665V9.656c0-0.538-0.05-0.915-0.145-1.134c-0.102-0.217-0.261-0.389-0.487-0.518
		c-0.227-0.127-0.531-0.192-0.923-0.192h-1.218V6.678z"/>
	<path d="M119.491,8.596V7.492c0.737-0.088,1.358-0.211,1.86-0.372c0.501-0.157,1.071-0.417,1.711-0.761h0.972v10.687
		c0,0.365,0.052,0.646,0.162,0.823c0.101,0.185,0.253,0.316,0.444,0.404c0.192,0.084,0.543,0.124,1.045,0.124h0.621v1.132h-6.784
		v-1.132h0.543c0.588,0,0.98-0.06,1.181-0.16c0.202-0.105,0.343-0.258,0.427-0.443c0.084-0.192,0.127-0.649,0.127-1.352V8.596
		H119.491z"/>
	<path d="M128.658,8.596V7.492c0.667-0.064,1.241-0.166,1.717-0.317c0.475-0.147,1.099-0.42,1.863-0.816h0.963v14.504
		c0,1.045-0.195,1.928-0.595,2.634c-0.401,0.714-0.958,1.274-1.68,1.69c-0.716,0.421-1.572,0.627-2.569,0.627
		c-0.957,0-1.722-0.2-2.289-0.598c-0.572-0.404-0.85-0.809-0.85-1.233c0-0.359,0.111-0.652,0.342-0.873
		c0.226-0.234,0.511-0.348,0.881-0.348c0.215,0,0.398,0.041,0.556,0.116c0.157,0.089,0.372,0.258,0.653,0.546
		c0.427,0.423,0.774,0.705,1.027,0.845c0.186,0.104,0.395,0.16,0.629,0.16c0.548,0,0.984-0.269,1.3-0.798
		c0.24-0.391,0.362-1.023,0.362-1.905V8.596H128.658z"/>
	<path d="M147.244,10.725c-0.13-0.817-0.322-1.419-0.566-1.807c-0.246-0.396-0.594-0.705-1.036-0.94
		c-0.453-0.23-0.962-0.343-1.517-0.343c-0.563,0-1.082,0.113-1.572,0.343c-0.488,0.235-0.897,0.552-1.224,0.958
		c-0.321,0.415-0.601,1.011-0.838,1.789H147.244z M148.949,16.085l0.849,0.713c-0.649,0.766-1.274,1.38-1.885,1.833
		c-0.61,0.447-1.183,0.768-1.731,0.951c-0.54,0.171-1.177,0.267-1.905,0.267c-1.311,0-2.419-0.264-3.335-0.8
		c-1.048-0.611-1.853-1.412-2.414-2.398c-0.552-0.978-0.833-2.146-0.833-3.491c0-1.398,0.267-2.597,0.806-3.595
		c0.542-0.992,1.299-1.78,2.272-2.351c0.968-0.569,2.102-0.855,3.377-0.855c0.949,0,1.773,0.143,2.475,0.44
		c0.702,0.298,1.302,0.748,1.789,1.351c0.49,0.594,0.842,1.288,1.065,2.053c0.127,0.46,0.194,1.045,0.214,1.761h-9.409
		c-0.024,0.433-0.035,0.762-0.035,0.971c0,1.118,0.195,2.114,0.583,2.986c0.395,0.873,0.908,1.516,1.551,1.928
		c0.646,0.406,1.375,0.614,2.193,0.614c0.691,0,1.36-0.16,2.015-0.484C147.235,17.665,148.025,17.024,148.949,16.085"/>
	<path d="M152.546,8.596V7.492c0.795-0.088,1.386-0.195,1.778-0.32c0.394-0.129,0.954-0.401,1.697-0.813h0.963v2.572
		c1.181-1.002,2.176-1.68,3.016-2.036c0.827-0.362,1.673-0.536,2.53-0.536c0.723,0,1.375,0.118,1.935,0.366
		c0.56,0.239,1.021,0.572,1.37,0.99c0.348,0.414,0.583,0.887,0.699,1.423c0.072,0.324,0.105,0.822,0.105,1.483v5.851
		c0,0.705,0.047,1.151,0.151,1.352c0.105,0.203,0.27,0.348,0.49,0.436c0.221,0.092,0.763,0.136,1.633,0.136v1.132h-6.851v-1.132
		h0.369c0.642,0,1.084-0.06,1.316-0.177c0.229-0.116,0.401-0.282,0.501-0.505c0.104-0.215,0.16-0.662,0.16-1.345v-4.875
		c0-1.004-0.089-1.705-0.252-2.095c-0.162-0.384-0.446-0.695-0.847-0.935c-0.397-0.249-0.899-0.369-1.511-0.369
		c-0.72,0-1.496,0.185-2.323,0.552c-0.818,0.368-1.616,0.907-2.384,1.619v6.102c0,0.691,0.049,1.145,0.15,1.377
		c0.096,0.232,0.262,0.397,0.49,0.514c0.153,0.092,0.577,0.136,1.254,0.136h0.374v1.132h-6.781v-1.132h0.333
		c0.665,0,1.113-0.06,1.349-0.168c0.244-0.111,0.417-0.31,0.514-0.589c0.052-0.134,0.081-0.623,0.081-1.447V8.596H152.546z"/>
	<path d="M68.794,17.596c0-0.426,0.151-0.792,0.446-1.09c0.295-0.305,0.651-0.456,1.074-0.456c0.425,0,0.784,0.151,1.084,0.456
		c0.301,0.298,0.449,0.664,0.449,1.09c0,0.424-0.149,0.787-0.449,1.093c-0.3,0.301-0.659,0.452-1.084,0.452
		c-0.424,0-0.779-0.151-1.074-0.452C68.945,18.383,68.794,18.02,68.794,17.596"/>
	<path d="M68.794,8.432c0-0.429,0.151-0.797,0.446-1.097c0.295-0.302,0.651-0.458,1.074-0.458c0.425,0,0.784,0.156,1.084,0.458
		c0.301,0.301,0.449,0.668,0.449,1.097c0,0.424-0.149,0.789-0.449,1.088c-0.3,0.298-0.659,0.45-1.084,0.45
		c-0.424,0-0.779-0.153-1.074-0.45C68.945,9.221,68.794,8.856,68.794,8.432"/>
</g>
</svg>
